<svg id="Layer_1" data-name="Layer 1" xmlns="http://www.w3.org/2000/svg" viewBox="0 0 970.67 866.78"><defs><style>.cls-1{fill:#00a79d;}</style></defs><path class="cls-1" d="M971.78,933.39h-295A80.73,80.73,0,0,1,611.38,900l-29-40.06-83.26-115-81.82,115L381,911a53.2,53.2,0,0,1-43.37,22.37H30.83L39.6,911.1a80.72,80.72,0,0,1,75.11-51.16H298.58a45,45,0,0,0,36.13-18.19l118.68-160L429.8,649.14a44.39,44.39,0,0,1,1.3-53.77L458.6,561l41.85,57.29,45,61.58L663.61,841.74a44.35,44.35,0,0,0,35.83,18.2H832.67L627.57,564.38l-28-40.32a44.43,44.43,0,0,1,.33-51.11L636,422.33l127.8-179.25a48.9,48.9,0,0,1,39.82-20.52h67.09L680.48,490l243,369.94Z" transform="translate(-14.67 -66.61)"/><path class="cls-1" d="M985.33,67c-.06.26-.06.46-.13.66l-43.59,60.86-.13.13a35.32,35.32,0,0,1-16.8,11.47,60.87,60.87,0,0,1-11.13,2.66,76.68,76.68,0,0,1-11.73.94q-101.28.3-202.49.4c-7.2,0-14.4-.07-21.6-.34-11.8-.33-21.6,3.33-29.39,10.8a47,47,0,0,0-5.87,7c-10.13,14.53-20,29.13-30,43.79q-54.6,80.08-109.25,160.17Q466.14,419.94,429,474.39c-5,7.27-10,14.53-14.93,21.86q-21.9,32-43.72,64-63,92.09-125.91,184-9.3,13.5-19.66,26.19c-9.13,10.93-20.13,19.4-34.6,22.27-9.79,1.93-19.59,1.66-29.32.26-11.27-1.53-22.4-3.73-33.6-5.66a19.18,19.18,0,0,1-3.33-1.34c1.33-2.13,2.4-4,3.6-5.8Q194.8,681.31,262,582.44q30.18-44.1,60.38-88.25,22.2-32.51,44.46-65,36.6-53.38,73.19-106.84c.93-1.4,1.86-2.94,2.86-4.4a38.58,38.58,0,0,0,2.67-4.74l9.6-14.13L398,220c-13.27-19.26-26.46-38.59-39.86-57.85L340.2,140.13h-178l4,5.73.33.53c1.2,1.87,2.26,3.47,3.33,5,2.6,3.6,5.13,7.27,7.73,10.87Q234.53,242.63,291.48,323c5.13,7.27,9.86,14.93,14.33,22.66,7.4,12.8,7.26,25.33-.2,37.6l-.07.06L288.88,405c-5.47,6.47-11.27,12.8-17.07,19.33L149.17,255.24l-1.06-1.4Q107.61,197,67,140.13q-26.1-36.6-52.32-73.32H23.8l87.91.06q69.09.1,138.18.07c12.39,0,24.86-.07,37.25-.13l17.8-.2h63.32c15.2,2.4,27.33,10.66,36.39,24.66,8.87,13.53,17.6,27.13,26.66,40.46,1.94,2.8,3.8,5.6,5.74,8.4q29.79,43.79,59.72,87.38c1,1.4,2.06,2.8,3.6,4.86,2-2.73,3.73-5.13,5.4-7.59s3.33-4.8,5-7.27q26.81-38.68,53.59-77.38,15.6-22.6,31.33-45.19a134.57,134.57,0,0,1,12.26-15.27c7.94-8.2,17.4-12.13,29.27-12.13h70.71q134.69-.2,269.41-.53C979.87,66.94,982.47,67,985.33,67Z" transform="translate(-14.67 -66.61)"/></svg>